<svg width="21" height="20" viewBox="0 0 21 20" fill="none" xmlns="http://www.w3.org/2000/svg">
<path d="M9.53181 0.589835C9.90207 -0.196907 11.0212 -0.196907 11.3915 0.589835L13.7432 5.58697C13.893 5.90526 14.1952 6.12481 14.5442 6.16892L20.0235 6.86135C20.8861 6.97037 21.232 8.03474 20.5981 8.62999L16.5723 12.4108C16.3159 12.6516 16.2005 13.0069 16.2664 13.3524L17.301 18.7775C17.4639 19.6316 16.5585 20.2895 15.7965 19.8706L10.9567 17.2101C10.6484 17.0407 10.2749 17.0407 9.96661 17.2101L5.12677 19.8706C4.36479 20.2895 3.45938 19.6316 3.62228 18.7775L4.65692 13.3524C4.72282 13.0069 4.6074 12.6516 4.35097 12.4108L0.325145 8.62999C-0.308676 8.03474 0.0371572 6.97037 0.899808 6.86135L6.37909 6.16892C6.72809 6.12481 7.03028 5.90526 7.18008 5.58697L9.53181 0.589835Z" fill="#F5BE18"/>
</svg>
